<?xml version="1.0" standalone="no"?>
<!DOCTYPE svg PUBLIC "-//W3C//DTD SVG 20010904//EN"
 "http://www.w3.org/TR/2001/REC-SVG-20010904/DTD/svg10.dtd">
<svg version="1.0" xmlns="http://www.w3.org/2000/svg"
 width="512.000000pt" height="512.000000pt" viewBox="0 0 512.000000 512.000000"
 preserveAspectRatio="xMidYMid meet">
<metadata>
Created by potrace 1.14, written by Peter Selinger 2001-2017
</metadata>
<g transform="translate(0.000000,512.000000) scale(0.100000,-0.100000)"
fill="#000000" stroke="none">
<path d="M587 5105 c-79 -16 -193 -65 -258 -111 -25 -18 -81 -70 -125 -116
-87 -92 -138 -177 -176 -298 l-23 -75 0 -1945 c0 -2173 -6 -1982 72 -2145 30
-65 57 -100 140 -185 117 -121 206 -176 339 -210 75 -20 114 -20 1743 -20
1825 0 1770 -2 1945 59 203 70 343 161 501 323 172 176 260 327 324 553 41
148 51 241 51 486 0 299 -18 451 -74 634 -84 276 -196 476 -367 658 l-91 98
22 52 c56 128 120 362 139 500 16 114 13 625 -3 712 -50 262 -174 486 -374
677 -112 107 -189 162 -315 224 -97 48 -151 68 -300 109 -113 32 -240 35
-1669 34 -1162 -1 -1446 -3 -1501 -14z m2994 -165 c174 -20 426 -116 558 -213
73 -53 196 -176 250 -250 53 -73 125 -214 150 -297 44 -145 51 -205 51 -465 0
-222 -3 -265 -25 -384 -30 -164 -80 -325 -143 -455 l-47 -98 120 -122 c128
-129 200 -228 277 -382 139 -277 184 -516 175 -914 -4 -199 -7 -224 -36 -338
-17 -67 -35 -130 -41 -140 -5 -9 -25 -53 -46 -97 -128 -277 -396 -497 -709
-583 l-100 -27 -1695 0 -1695 0 -60 23 c-184 71 -305 199 -371 392 -18 53 -19
118 -19 1970 l0 1915 23 65 c58 162 160 279 302 348 47 23 108 45 135 50 69
13 2834 15 2946 2z"/>
<path d="M631 4730 c-106 -38 -174 -101 -225 -210 l-31 -65 -3 -417 c-2 -230
0 -418 4 -418 3 0 107 64 230 143 123 78 242 153 264 167 53 33 444 281 605
385 28 17 187 119 355 225 168 106 309 197 315 202 5 4 -322 8 -725 8 -703 -1
-737 -2 -789 -20z"/>
<path d="M2055 4384 c-314 -200 -575 -368 -581 -372 -7 -4 66 -126 203 -337
430 -664 451 -695 471 -695 11 0 77 35 148 78 252 152 451 262 558 307 59 25
111 45 114 45 4 0 -51 -31 -123 -68 -153 -80 -595 -346 -595 -359 0 -2 3 -2 8
0 4 3 74 43 155 91 477 279 881 420 1150 403 152 -10 223 -61 221 -160 -2 -77
-37 -156 -118 -265 -255 -342 -765 -739 -1441 -1122 -317 -180 -624 -326 -663
-317 -9 2 66 44 168 95 253 125 760 421 760 444 0 27 -89 -14 -287 -129 -209
-123 -423 -217 -700 -307 -276 -90 -407 -82 -495 29 -19 24 -23 42 -23 95 0
54 6 75 33 125 113 210 421 505 842 807 131 94 145 107 145 134 -1 20 -53 110
-179 304 -98 151 -204 314 -235 362 -31 48 -97 150 -146 227 l-90 138 -305
-193 c-168 -107 -389 -247 -492 -311 l-188 -118 3 -1330 2 -1330 27 -57 c57
-122 172 -208 305 -228 46 -7 578 -10 1658 -8 l1590 3 99 27 c176 49 298 118
422 242 120 119 198 260 245 441 22 84 24 108 24 365 0 247 -3 285 -23 376
-43 198 -113 367 -214 519 -65 98 -228 263 -325 329 -40 27 -73 53 -73 57 0 4
25 49 55 99 104 171 167 335 207 547 20 103 23 148 22 358 -1 226 -2 246 -27
337 -85 318 -334 560 -672 654 l-100 28 -485 2 -485 3 -570 -365z m817 -2539
c193 -295 586 -907 646 -1005 l64 -105 -63 -3 c-54 -3 -65 0 -85 20 -21 22
-104 146 -228 340 -33 51 -83 129 -111 173 -170 262 -425 664 -428 675 -1 4
18 23 43 42 53 41 37 55 162 -137z"/>
<path d="M2630 2843 c-89 -32 -159 -63 -227 -102 -64 -36 -83 -51 -85 -70 -4
-30 -57 -64 -98 -63 -21 0 -52 -19 -122 -78 -138 -115 -190 -192 -155 -228 59
-58 463 164 669 368 98 96 122 137 98 165 -12 15 -51 19 -80 8z"/>
<path d="M2704 2316 c-10 -8 -16 -17 -13 -20 3 -3 14 3 24 14 21 23 17 26 -11
6z"/>
</g>
</svg>
