<?xml version="1.0" standalone="no"?>
<!DOCTYPE svg PUBLIC "-//W3C//DTD SVG 20010904//EN"
 "http://www.w3.org/TR/2001/REC-SVG-20010904/DTD/svg10.dtd">
<svg version="1.0" xmlns="http://www.w3.org/2000/svg"
 width="512.000000pt" height="512.000000pt" viewBox="0 0 512.000000 512.000000"
 preserveAspectRatio="xMidYMid meet">
<metadata>
Created by potrace 1.14, written by Peter Selinger 2001-2017
</metadata>
<g transform="translate(0.000000,512.000000) scale(0.100000,-0.100000)"
fill="#000000" stroke="none">
<path d="M550 4854 c-145 -39 -260 -167 -290 -319 -7 -41 -10 -191 -8 -462 l3
-402 455 290 c499 317 495 315 660 419 63 40 144 92 180 115 36 23 178 113
315 200 138 86 254 161 260 166 5 5 -314 9 -755 8 -640 0 -774 -3 -820 -15z"/>
<path d="M2499 4782 c-74 -48 -298 -190 -497 -317 -431 -273 -542 -345 -573
-366 l-23 -16 73 -114 c79 -125 85 -134 410 -634 l223 -345 37 22 c20 12 59
36 86 53 115 72 437 256 524 299 108 55 274 124 381 159 171 56 172 46 3 -23
-139 -56 -416 -189 -448 -214 -11 -9 32 8 95 38 221 103 546 217 665 231 28 4
64 9 80 12 17 3 26 2 22 -3 -4 -4 40 -16 97 -26 209 -35 266 -100 217 -245
-85 -253 -505 -663 -1078 -1052 -109 -74 -122 -86 -117 -107 5 -19 -1 -26 -34
-43 -23 -11 -44 -26 -47 -32 -5 -7 -13 -5 -26 7 -18 16 -23 14 -111 -38 -385
-228 -785 -430 -979 -496 -124 -41 -249 -64 -249 -45 0 5 32 19 71 31 126 40
259 93 397 158 124 59 332 172 332 179 0 6 -141 -55 -190 -81 -89 -48 -288
-143 -334 -158 -26 -9 -59 -16 -75 -16 -15 0 -31 -3 -34 -7 -11 -10 -127 -18
-262 -18 -120 0 -120 0 -167 33 -184 128 -111 334 241 682 173 172 402 357
685 555 53 36 96 69 96 71 0 11 -26 54 -143 234 -66 102 -139 214 -162 250
-224 349 -380 587 -389 597 -8 9 -76 -29 -286 -162 -151 -96 -384 -243 -517
-327 l-243 -153 3 -1395 2 -1395 24 -58 c45 -114 141 -202 266 -245 46 -16
170 -17 1665 -20 1680 -3 1792 -1 1947 38 154 40 342 154 449 273 132 147 216
326 249 532 19 117 19 444 1 585 -36 266 -133 509 -283 707 -66 88 -228 244
-308 298 -32 22 -63 43 -68 46 -5 4 17 49 48 100 130 210 202 416 241 695 19
142 14 464 -10 579 -51 245 -191 451 -411 602 -56 39 -190 101 -265 123 -153
46 -217 50 -705 49 l-460 0 -136 -87z m437 -3049 c77 -117 166 -254 199 -305
32 -51 87 -136 120 -188 291 -449 375 -585 375 -605 0 -3 -29 -5 -65 -5 -57 0
-68 3 -88 25 -25 29 -525 802 -697 1079 -110 176 -111 178 -90 193 11 8 33 25
48 38 l26 22 17 -21 c9 -11 79 -117 155 -233z"/>
<path d="M2655 2863 c-170 -39 -492 -239 -665 -412 -112 -112 -129 -171 -51
-171 147 0 599 281 741 461 50 63 60 97 35 116 -19 13 -25 14 -60 6z"/>
</g>
</svg>
